<?xml version="1.0" encoding="UTF-8" standalone="no"?>
<svg
   xmlns:dc="http://purl.org/dc/elements/1.1/"
   xmlns:cc="http://creativecommons.org/ns#"
   xmlns:rdf="http://www.w3.org/1999/02/22-rdf-syntax-ns#"
   xmlns:svg="http://www.w3.org/2000/svg"
   xmlns="http://www.w3.org/2000/svg"
   xmlns:sodipodi="http://sodipodi.sourceforge.net/DTD/sodipodi-0.dtd"
   xmlns:inkscape="http://www.inkscape.org/namespaces/inkscape"
   width="1200pt"
   height="1200pt"
   version="1.1"
   viewBox="0 0 1200 1200"
   id="svg16"
   sodipodi:docname="NWindows.svg"
   inkscape:version="0.92.4 (5da689c313, 2019-01-14)"
   inkscape:export-filename="C:\code\NWindows\img\NWindows.png"
   inkscape:export-xdpi="30.719999"
   inkscape:export-ydpi="30.719999">
  <metadata
     id="metadata22">
    <rdf:RDF>
      <cc:Work
         rdf:about="">
        <dc:format>image/svg+xml</dc:format>
        <dc:type
           rdf:resource="http://purl.org/dc/dcmitype/StillImage" />
      </cc:Work>
    </rdf:RDF>
  </metadata>
  <defs
     id="defs20" />
  <sodipodi:namedview
     pagecolor="#ffffff"
     bordercolor="#666666"
     borderopacity="1"
     objecttolerance="10"
     gridtolerance="10"
     guidetolerance="10"
     inkscape:pageopacity="0"
     inkscape:pageshadow="2"
     inkscape:window-width="2933"
     inkscape:window-height="1837"
     id="namedview18"
     showgrid="false"
     inkscape:zoom="0.59"
     inkscape:cx="63.604639"
     inkscape:cy="634.92741"
     inkscape:window-x="199"
     inkscape:window-y="224"
     inkscape:window-maximized="0"
     inkscape:current-layer="svg16" />
  <rect
     style="fill:#ffffff;fill-opacity:1;stroke:none;stroke-width:3;stroke-miterlimit:4;stroke-dasharray:none;stroke-opacity:1"
     id="rect4576"
     width="1115.4908"
     height="614.82336"
     x="45.842094"
     y="435.96515"
     rx="4.5"
     ry="4.5" />
  <rect
     style="fill:#b3b3b3;fill-opacity:1;stroke:none;stroke-width:3;stroke-miterlimit:4;stroke-dasharray:none;stroke-opacity:1"
     id="rect4578"
     width="1129.8727"
     height="262.46844"
     x="38.651176"
     y="147.42961"
     rx="4.5"
     ry="4.5" />
  <path
     inkscape:connector-curvature="0"
     id="path2"
     d="M 1118.8,1085.9 H 81.3 c -41.352,0 -75,-33.648 -75,-75 V 189 c 0,-41.352 33.648,-75 75,-75 h 1037.5 c 41.352,0 75,33.648 75,75 v 821.9 c 0,41.352 -33.648,75 -75,75 z M 81.3,164 c -13.75,0 -25,11.25 -25,25 v 821.9 c 0,13.75 11.25,25 25,25 h 1037.5 c 13.75,0 25,-11.25 25,-25 V 189 c 0,-13.75 -11.25,-25 -25,-25 z" />
  <path
     inkscape:connector-curvature="0"
     id="path4"
     d="m 31.25,395.3 h 1137.5 v 50 H 31.25 Z" />
  <path
     inkscape:connector-curvature="0"
     id="path6"
     d="m 212.25,281.05 c 0,34.656 -28.094,62.75 -62.75,62.75 -34.656,0 -62.75,-28.094 -62.75,-62.75 0,-34.656 28.094,-62.75 62.75,-62.75 34.656,0 62.75,28.094 62.75,62.75"
     style="fill:#ff605c;fill-opacity:1;stroke:none" />
  <path
     inkscape:connector-curvature="0"
     id="path8"
     d="m 362.8903,281.05 c 0,34.656 -28.094,62.75 -62.75,62.75 -34.656,0 -62.75,-28.094 -62.75,-62.75 0,-34.656 28.094,-62.75 62.75,-62.75 34.656,0 62.75,28.094 62.75,62.75"
     style="fill:#ffbd44;fill-opacity:1" />
  <path
     inkscape:connector-curvature="0"
     id="path10"
     d="m 512.25,281.05 c 0,34.656 -28.094,62.75 -62.75,62.75 -34.656,0 -62.75,-28.094 -62.75,-62.75 0,-34.656 28.094,-62.75 62.75,-62.75 34.656,0 62.75,28.094 62.75,62.75"
     style="fill:#ffbd40;fill-opacity:0" />
  <path
     inkscape:connector-curvature="0"
     id="path12"
     d="m 1112,280.5 c 0,34.949 -28.352,63.301 -63.301,63.301 h -350 c -34.949,0 -63.301,-28.352 -63.301,-63.301 0,-34.949 28.352,-63.301 63.301,-63.301 h 350 c 34.949,0 63.301,28.352 63.301,63.301 z"
     style="fill:#008cff;fill-opacity:1" />
  <path
     inkscape:connector-curvature="0"
     id="path8-1"
     d="m 513.53057,280.91099 c 0,34.656 -28.094,62.75 -62.75,62.75 -34.656,0 -62.75,-28.094 -62.75,-62.75 0,-34.656 28.094,-62.75 62.75,-62.75 34.656,0 62.75,28.094 62.75,62.75"
     style="fill:#00ca4e;fill-opacity:1;stroke-width:0.99999994" />
</svg>
